<?xml version="1.0" encoding="utf-8"?>
<!-- Generator: Adobe Illustrator 23.0.2, SVG Export Plug-In . SVG Version: 6.00 Build 0)  -->
<svg version="1.1" id="Layer_1" xmlns="http://www.w3.org/2000/svg" xmlns:xlink="http://www.w3.org/1999/xlink" x="0px" y="0px"
	 viewBox="0 0 314 70" style="enable-background:new 0 0 314 70;" xml:space="preserve">
<style type="text/css">
	.jmd-st0{fill-rule:evenodd;clip-rule:evenodd;}
</style>
<g>
	<g>
		<path class="jmd-st0" d="M65.2,29.1V11.5h5.4c1.5,0,2.9,0.3,4.1,1c1.2,0.7,2.2,1.7,2.8,3s1,2.7,1,4.4v0.8c0,1.6-0.3,3.1-1,4.4s-1.6,2.3-2.8,3
			s-2.6,1.1-4.1,1.1H65.2z M68.8,14.4v11.7h1.7c1.4,0,2.5-0.5,3.2-1.4c0.7-0.9,1.1-2.2,1.1-4v-0.9c0-1.8-0.4-3.1-1.1-4.1
			c-0.7-0.9-1.8-1.4-3.2-1.4H68.8z"/>
		<path class="jmd-st0" d="M90.2,22.6h-2.9v6.4h-3.6V11.5h6.5c2.1,0,3.7,0.5,4.8,1.4c1.1,0.9,1.7,2.2,1.7,3.9c0,1.2-0.3,2.2-0.8,3
			c-0.5,0.8-1.3,1.4-2.4,1.9l3.8,7.2v0.2h-3.9L90.2,22.6z M87.3,19.7h2.9c0.9,0,1.6-0.2,2.1-0.7c0.5-0.5,0.7-1.1,0.7-1.9
			c0-0.8-0.2-1.5-0.7-2s-1.2-0.7-2.2-0.7h-2.9V19.7z"/>
		<path class="jmd-st0" d="M101.9,27.3c0-0.6,0.2-1,0.6-1.3s0.8-0.5,1.4-0.5c0.6,0,1,0.2,1.4,0.5s0.6,0.8,0.6,1.3c0,0.5-0.2,1-0.6,1.3
			c-0.4,0.3-0.8,0.5-1.4,0.5c-0.6,0-1-0.2-1.4-0.5C102.1,28.3,101.9,27.9,101.9,27.3z"/>
		<path class="jmd-st0" d="M127.2,11.5h3.6v12.1c0,1.1-0.2,2.1-0.7,3c-0.5,0.9-1.2,1.5-2.1,2c-0.9,0.5-1.9,0.7-3,0.7c-1.9,0-3.3-0.5-4.3-1.4
			c-1-0.9-1.6-2.3-1.6-4h3.6c0,0.9,0.2,1.5,0.5,1.9s0.9,0.6,1.7,0.6c0.7,0,1.2-0.2,1.7-0.7c0.4-0.5,0.6-1.1,0.6-2V11.5z"/>
		<path class="jmd-st0" d="M150.8,20.7c0,1.7-0.3,3.2-0.9,4.5s-1.5,2.3-2.6,3c-1.1,0.7-2.4,1.1-3.9,1.1c-1.5,0-2.8-0.3-3.9-1c-1.1-0.7-2-1.7-2.7-3
			c-0.6-1.3-0.9-2.8-1-4.5v-0.9c0-1.7,0.3-3.2,0.9-4.6c0.6-1.3,1.5-2.3,2.6-3c1.1-0.7,2.4-1.1,3.9-1.1s2.8,0.4,3.9,1.1s2,1.7,2.6,3
			c0.6,1.3,0.9,2.8,0.9,4.5V20.7z M147.2,19.9c0-1.8-0.3-3.2-1-4.2s-1.6-1.4-2.8-1.4c-1.2,0-2.1,0.5-2.8,1.4c-0.7,0.9-1,2.3-1,4.2
			v0.9c0,1.8,0.3,3.2,1,4.2s1.6,1.5,2.8,1.5c1.2,0,2.1-0.5,2.8-1.4c0.7-1,1-2.3,1-4.2V19.9z"/>
		<path class="jmd-st0" d="M170.2,29.1h-3.6v-7.5h-7v7.5h-3.6V11.5h3.6v7.1h7v-7.1h3.6V29.1z"/>
		<path class="jmd-st0" d="M190.1,29.1h-3.6l-7-11.5v11.5h-3.6V11.5h3.6l7,11.6V11.5h3.6V29.1z"/>
		<path class="jmd-st0" d="M209.1,11.5l4.5,12.7l4.5-12.7h4.7v17.5h-3.6v-4.8l0.4-8.3l-4.7,13.1h-2.5L207.6,16l0.4,8.3v4.8h-3.6V11.5H209.1z"/>
		<path class="jmd-st0" d="M238.6,25.4h-6.3l-1.2,3.6h-3.8l6.5-17.5h3.4l6.6,17.5h-3.8L238.6,25.4z M233.2,22.5h4.4l-2.2-6.6L233.2,22.5z"/>
		<path class="jmd-st0" d="M254.2,22.6h-2.9v6.4h-3.6V11.5h6.5c2.1,0,3.7,0.5,4.8,1.4c1.1,0.9,1.7,2.2,1.7,3.9c0,1.2-0.3,2.2-0.8,3
			c-0.5,0.8-1.3,1.4-2.4,1.9l3.8,7.2v0.2h-3.9L254.2,22.6z M251.3,19.7h2.9c0.9,0,1.6-0.2,2.1-0.7c0.5-0.5,0.7-1.1,0.7-1.9
			c0-0.8-0.2-1.5-0.7-2c-0.5-0.5-1.2-0.7-2.2-0.7h-2.9V19.7z"/>
		<path class="jmd-st0" d="M278.5,14.4h-5.4v14.6h-3.6V14.4h-5.3v-2.9h14.3V14.4z"/>
		<path class="jmd-st0" d="M286.9,29.1h-3.6V11.5h3.6V29.1z"/>
		<path class="jmd-st0" d="M307,29.1h-3.6l-7-11.5v11.5h-3.6V11.5h3.6l7,11.6V11.5h3.6V29.1z"/>
	</g>
	<g>
		<path class="jmd-st0" d="M68.5,49c-0.7-0.8-1.2-1.6-1.5-2.3c-0.3-0.7-0.5-1.3-0.5-2c0-1.2,0.4-2.2,1.1-2.9s1.7-1.1,2.9-1.1c1.1,0,2,0.3,2.7,1
			c0.7,0.6,1,1.5,1,2.5c0,1.2-0.7,2.3-2,3.4l-1.9,1.5l4.8,5.6c0.7-1.2,1.1-2.5,1.1-4h1.3c0,2-0.5,3.7-1.5,5l2.4,2.8h-1.7l-1.5-1.8
			c-0.6,0.6-1.4,1.1-2.2,1.5c-0.8,0.4-1.7,0.5-2.6,0.5c-1.7,0-3-0.4-4-1.3s-1.5-2-1.5-3.4c0-0.9,0.3-1.7,0.8-2.4
			c0.5-0.8,1.4-1.6,2.6-2.6L68.5,49z M70.4,57.6c0.7,0,1.4-0.2,2.1-0.5c0.7-0.3,1.3-0.7,1.8-1.3l-4.9-5.7l-0.2-0.2l-0.6,0.4
			c-1.6,1.3-2.4,2.5-2.4,3.7c0,1.1,0.4,1.9,1.1,2.5C68.2,57.2,69.1,57.6,70.4,57.6z M67.9,44.7c0,1,0.5,2.1,1.6,3.5l1.6-1.2
			c0.5-0.4,0.9-0.8,1.3-1.2c0.3-0.4,0.5-1,0.5-1.6c0-0.6-0.2-1.2-0.7-1.6c-0.4-0.4-1-0.6-1.7-0.6c-0.8,0-1.4,0.3-1.9,0.8
			C68.2,43.2,67.9,43.9,67.9,44.7z"/>
		<path class="jmd-st0" d="M101.4,53.6h-8l-1.8,4.9h-1.6L96.7,41h1.4l6.6,17.5h-1.5L101.4,53.6z M93.9,52.4h7l-3.5-9.6L93.9,52.4z"/>
		<path class="jmd-st0" d="M119.8,54.2c0-1-0.3-1.7-1-2.3c-0.7-0.6-1.9-1.1-3.7-1.6c-1.8-0.5-3.1-1.1-4-1.7c-1.2-0.9-1.8-2-1.8-3.4
			c0-1.3,0.6-2.4,1.7-3.3c1.1-0.8,2.5-1.3,4.2-1.3c1.2,0,2.2,0.2,3.1,0.7c0.9,0.5,1.6,1.1,2.1,1.9c0.5,0.8,0.8,1.7,0.8,2.7h-1.5
			c0-1.2-0.4-2.2-1.2-2.9c-0.8-0.7-1.9-1.1-3.3-1.1c-1.3,0-2.4,0.3-3.2,0.9c-0.8,0.6-1.2,1.4-1.2,2.3c0,0.9,0.4,1.6,1.1,2.2
			c0.7,0.6,1.9,1.1,3.4,1.5c1.6,0.4,2.8,0.9,3.6,1.3c0.8,0.5,1.4,1,1.8,1.7c0.4,0.6,0.6,1.4,0.6,2.3c0,1.4-0.6,2.5-1.7,3.3
			c-1.1,0.8-2.6,1.3-4.4,1.3c-1.2,0-2.4-0.2-3.4-0.7s-1.8-1.1-2.3-1.9c-0.5-0.8-0.8-1.7-0.8-2.7h1.5c0,1.2,0.5,2.2,1.4,2.9
			c0.9,0.7,2.2,1.1,3.7,1.1c1.4,0,2.5-0.3,3.3-0.9C119.4,56,119.8,55.2,119.8,54.2z"/>
		<path class="jmd-st0" d="M136.9,54.2c0-1-0.3-1.7-1-2.3c-0.7-0.6-1.9-1.1-3.7-1.6c-1.8-0.5-3.1-1.1-4-1.7c-1.2-0.9-1.8-2-1.8-3.4
			c0-1.3,0.6-2.4,1.7-3.3c1.1-0.8,2.5-1.3,4.2-1.3c1.2,0,2.2,0.2,3.1,0.7c0.9,0.5,1.6,1.1,2.1,1.9c0.5,0.8,0.8,1.7,0.8,2.7h-1.5
			c0-1.2-0.4-2.2-1.2-2.9c-0.8-0.7-1.9-1.1-3.3-1.1c-1.3,0-2.4,0.3-3.2,0.9c-0.8,0.6-1.2,1.4-1.2,2.3c0,0.9,0.4,1.6,1.1,2.2
			c0.7,0.6,1.9,1.1,3.4,1.5c1.6,0.4,2.8,0.9,3.6,1.3c0.8,0.5,1.4,1,1.8,1.7s0.6,1.4,0.6,2.3c0,1.4-0.6,2.5-1.7,3.3
			c-1.1,0.8-2.6,1.3-4.4,1.3c-1.2,0-2.4-0.2-3.4-0.7c-1-0.4-1.8-1.1-2.3-1.9c-0.5-0.8-0.8-1.7-0.8-2.7h1.5c0,1.2,0.5,2.2,1.4,2.9
			c0.9,0.7,2.2,1.1,3.7,1.1c1.4,0,2.5-0.3,3.3-0.9C136.4,56,136.9,55.2,136.9,54.2z"/>
		<path class="jmd-st0" d="M157,50.7c0,1.6-0.3,3-0.8,4.3c-0.6,1.2-1.4,2.2-2.4,2.8c-1,0.7-2.2,1-3.6,1c-2,0-3.7-0.7-5-2.2s-1.9-3.4-1.9-5.9v-1.8
			c0-1.6,0.3-3,0.8-4.2c0.6-1.2,1.4-2.2,2.4-2.8c1-0.7,2.2-1,3.6-1c1.3,0,2.5,0.3,3.6,1s1.8,1.6,2.4,2.8c0.6,1.2,0.9,2.6,0.9,4.1
			V50.7z M155.5,48.8c0-2.1-0.5-3.8-1.4-5c-1-1.2-2.3-1.8-3.9-1.8c-1.6,0-2.9,0.6-3.9,1.8c-1,1.2-1.5,2.9-1.5,5v1.8
			c0,2.1,0.5,3.7,1.4,4.9c1,1.2,2.3,1.8,3.9,1.8c1.7,0,3-0.6,3.9-1.8c0.9-1.2,1.4-2.9,1.4-5V48.8z"/>
		<path class="jmd-st0" d="M175.6,53.1c-0.2,1.8-0.9,3.3-2,4.2s-2.6,1.5-4.5,1.5c-1.3,0-2.5-0.3-3.5-1c-1-0.7-1.8-1.6-2.3-2.8s-0.8-2.6-0.8-4.1v-2.3
			c0-1.6,0.3-2.9,0.8-4.1c0.5-1.2,1.3-2.1,2.4-2.8c1-0.7,2.2-1,3.5-1c1.9,0,3.4,0.5,4.5,1.5c1.1,1,1.7,2.4,1.9,4.2h-1.5
			c-0.4-3-2-4.5-4.9-4.5c-1.6,0-2.9,0.6-3.8,1.8c-0.9,1.2-1.4,2.8-1.4,4.9v2.1c0,2,0.5,3.6,1.4,4.8c0.9,1.2,2.2,1.8,3.7,1.8
			c1.6,0,2.7-0.4,3.5-1.1c0.8-0.7,1.3-1.9,1.5-3.3H175.6z"/>
		<path class="jmd-st0" d="M183.5,58.5H182V41h1.5V58.5z"/>
		<path class="jmd-st0" d="M200.4,53.6h-8l-1.8,4.9h-1.6l6.6-17.5h1.4l6.6,17.5h-1.5L200.4,53.6z M192.9,52.4h7l-3.5-9.6L192.9,52.4z"/>
		<path class="jmd-st0" d="M219.2,42.2h-6v16.3h-1.5V42.2h-6V41h13.5V42.2z"/>
		<path class="jmd-st0" d="M234.2,50.1h-8.2v7.2h9.4v1.3h-10.9V41h10.9v1.3h-9.4v6.6h8.2V50.1z"/>
		<path class="jmd-st0" d="M250.9,54.2c0-1-0.3-1.7-1-2.3c-0.7-0.6-1.9-1.1-3.7-1.6c-1.8-0.5-3.1-1.1-4-1.7c-1.2-0.9-1.8-2-1.8-3.4
			c0-1.3,0.6-2.4,1.7-3.3c1.1-0.8,2.5-1.3,4.2-1.3c1.2,0,2.2,0.2,3.1,0.7c0.9,0.5,1.6,1.1,2.1,1.9c0.5,0.8,0.8,1.7,0.8,2.7h-1.5
			c0-1.2-0.4-2.2-1.2-2.9c-0.8-0.7-1.9-1.1-3.3-1.1c-1.3,0-2.4,0.3-3.2,0.9c-0.8,0.6-1.2,1.4-1.2,2.3c0,0.9,0.4,1.6,1.1,2.2
			c0.7,0.6,1.9,1.1,3.4,1.5c1.6,0.4,2.8,0.9,3.6,1.3c0.8,0.5,1.4,1,1.8,1.7c0.4,0.6,0.6,1.4,0.6,2.3c0,1.4-0.6,2.5-1.7,3.3
			c-1.1,0.8-2.6,1.3-4.4,1.3c-1.2,0-2.4-0.2-3.4-0.7s-1.8-1.1-2.3-1.9c-0.5-0.8-0.8-1.7-0.8-2.7h1.5c0,1.2,0.5,2.2,1.4,2.9
			c0.9,0.7,2.2,1.1,3.7,1.1c1.4,0,2.5-0.3,3.3-0.9C250.5,56,250.9,55.2,250.9,54.2z"/>
	</g>
	<path class="jmd-st0" d="M7,5.6v58.8h45.6V5.6H7z M41.2,40.6c0,7.7-1.4,13.9-3.2,13.9c-4.6,0-0.3-16.4-8.2-16.4
		c-7.9,0-3.7,16.4-8.2,16.4c-1.7,0-3.2-6.2-3.2-13.9c0-2.3,0.1-4.5,0.3-6.4c-2.7-5.7-4.1-12-2.9-15.1c2.5-6.3,8.8-2.5,13.9-2.5
		c5,0,11.4-3.8,13.9,2.5c1.2,3.1-0.2,9.4-2.9,15.1C41,36.2,41.2,38.3,41.2,40.6z"/>
</g>
</svg>
